<?xml version="1.0" standalone="no"?>
<!DOCTYPE svg PUBLIC "-//W3C//DTD SVG 20010904//EN"
 "http://www.w3.org/TR/2001/REC-SVG-20010904/DTD/svg10.dtd">
<svg version="1.0" xmlns="http://www.w3.org/2000/svg"
 width="256.000000pt" height="256.000000pt" viewBox="0 0 256.000000 256.000000"
 preserveAspectRatio="xMidYMid meet">
<metadata>
Created by potrace 1.11, written by Peter Selinger 2001-2013
</metadata>
<g transform="translate(0.000000,256.000000) scale(0.100000,-0.100000)"
fill="#000000" stroke="none">
<path d="M1889 2532 c-27 -24 -32 -35 -34 -87 -2 -33 -4 -65 -4 -71 -1 -6 -19
-16 -40 -23 -51 -15 -101 -71 -102 -114 -5 -156 -2 -543 4 -575 4 -21 16 -48
27 -60 11 -11 16 -23 12 -25 -6 -3 -136 -1 -152 2 -3 0 -5 25 -4 53 2 75 -12
116 -47 137 -26 16 -53 18 -237 17 -266 -2 -271 -5 -276 -139 l-2 -72 -39 0
c-54 -1 -102 -31 -124 -80 -17 -37 -19 -64 -17 -325 2 -157 4 -290 4 -297 1
-6 14 -25 28 -42 l26 -31 -104 0 -103 0 1 57 c2 67 -17 115 -51 133 -17 9 -81
13 -229 13 -260 0 -274 -6 -279 -134 l-2 -62 -40 -14 c-46 -16 -79 -44 -95
-82 -7 -19 -10 -121 -8 -323 3 -282 4 -298 24 -325 11 -15 36 -36 55 -45 32
-17 110 -18 1205 -18 l1171 0 34 23 c67 44 69 58 69 383 -1 268 -3 293 -20
322 -11 17 -28 37 -39 44 -18 11 -18 13 14 45 18 18 35 47 39 64 3 17 6 155 6
306 0 298 -4 326 -56 360 l-24 15 26 21 c51 39 54 63 54 374 0 254 -2 292 -18
322 -25 49 -57 70 -122 80 -3 1 -6 31 -7 67 -2 73 -19 109 -59 124 -14 6 -117
10 -229 10 l-205 0 -31 -28z"/>
</g>
</svg>
